<?xml version="1.0" standalone="no"?>
<!DOCTYPE svg PUBLIC "-//W3C//DTD SVG 20010904//EN"
 "http://www.w3.org/TR/2001/REC-SVG-20010904/DTD/svg10.dtd">
<svg version="1.0" xmlns="http://www.w3.org/2000/svg"
 width="512.000000pt" height="512.000000pt" viewBox="0 0 512.000000 512.000000"
 preserveAspectRatio="xMidYMid meet">

<g transform="translate(0.000000,512.000000) scale(0.100000,-0.100000)"
fill="#000000" stroke="none">
<path d="M2378 5109 c-10 -5 -18 -7 -18 -4 0 3 -33 -11 -72 -31 -152 -77 -168
-85 -186 -89 -9 -1 -40 -16 -67 -33 -83 -49 -189 -106 -200 -107 -13 0 -172
-108 -410 -279 -104 -75 -220 -158 -257 -184 -37 -26 -68 -52 -68 -58 0 -6 -6
-11 -13 -11 -17 0 -392 -275 -427 -313 -3 -3 -61 -50 -130 -105 -108 -86 -223
-188 -309 -275 -13 -14 -21 -19 -17 -12 9 14 -12 45 -24 37 -5 -3 -8 -18 -8
-33 1 -22 -12 -40 -54 -80 -31 -29 -67 -75 -82 -103 -27 -52 -34 -85 -16 -74
13 8 13 2 -1 -29 -9 -19 -8 -35 5 -72 9 -26 16 -58 16 -71 0 -19 4 -23 23 -19
20 3 23 1 19 -19 -3 -20 1 -25 24 -31 42 -10 45 -13 31 -35 -8 -13 -9 -22 -1
-27 5 -4 10 -17 10 -29 0 -13 2 -22 4 -21 12 5 50 -38 50 -56 0 -18 2 -18 25
4 15 14 25 18 25 11 0 -11 3 -11 16 0 13 11 14 9 8 -16 -5 -20 -4 -26 5 -21 6
4 11 4 12 -1 5 -53 19 -103 29 -103 5 0 24 16 42 37 92 101 238 240 352 333
18 14 18 14 8 -5 -6 -11 -37 -51 -69 -88 -121 -142 -148 -206 -118 -283 9 -24
14 -52 11 -61 -8 -21 21 -53 41 -46 13 5 13 3 3 -17 -15 -28 1 -50 23 -31 12
9 16 6 20 -16 4 -20 -2 -41 -23 -75 -33 -55 -24 -64 14 -15 14 17 26 26 26 19
0 -22 -40 -93 -121 -214 -44 -65 -79 -123 -79 -128 0 -6 -60 -73 -132 -148
-84 -86 -142 -156 -158 -187 -26 -53 -32 -75 -22 -75 4 0 8 -13 9 -30 1 -16 9
-43 18 -61 10 -18 14 -41 11 -55 -5 -17 -1 -26 14 -34 11 -6 20 -20 20 -30 0
-23 17 -26 39 -6 14 13 16 10 13 -30 -3 -30 0 -44 8 -44 9 0 10 -11 6 -35 -6
-31 -4 -35 14 -35 13 0 20 -7 20 -20 0 -11 7 -20 15 -20 8 0 17 0 20 0 2 0 17
-13 33 -28 23 -21 29 -34 27 -61 -4 -42 3 -61 21 -61 16 0 1 -29 -43 -83 -27
-34 -30 -52 -6 -43 16 6 16 6 0 -11 -14 -16 -67 -125 -67 -138 0 -3 7 -5 16
-5 13 0 15 -8 12 -35 -3 -27 0 -35 12 -35 11 0 23 -16 33 -41 13 -33 19 -40
30 -31 11 9 13 6 9 -19 -4 -29 -3 -30 17 -20 11 7 31 25 43 41 26 35 45 41 23
6 -17 -26 -11 -56 11 -56 12 0 11 -5 -3 -27 -10 -15 -16 -35 -15 -46 2 -10 -2
-25 -9 -33 -6 -8 -9 -18 -5 -22 4 -4 14 2 23 13 15 20 15 20 8 -2 -3 -13 -3
-23 0 -23 4 0 16 10 26 23 20 22 20 22 7 0 -15 -28 -6 -38 21 -24 17 10 20 9
14 -5 -7 -19 17 -37 32 -24 15 12 85 -7 85 -23 0 -6 19 8 43 31 24 23 47 39
52 35 4 -5 5 -3 1 4 -7 13 10 27 33 28 8 0 39 28 68 63 29 34 53 57 53 51 0
-6 8 -8 18 -5 10 4 7 -2 -8 -13 -21 -17 -23 -21 -8 -26 9 -4 26 -1 38 5 18 9
24 9 30 0 5 -8 16 -9 30 -5 21 7 22 5 18 -29 -3 -31 -1 -36 17 -36 19 -1 19
-1 3 -14 -22 -16 -23 -30 -3 -22 11 4 15 -2 15 -22 1 -25 2 -25 14 -9 13 17
36 24 36 10 0 -5 -7 -17 -15 -27 -18 -24 -20 -45 -3 -28 7 7 23 12 36 12 21 0
23 -2 12 -15 -7 -9 -10 -18 -6 -22 3 -3 -1 -15 -11 -25 -21 -23 -9 -36 14 -16
10 9 29 19 43 23 l25 7 -24 -26 c-14 -14 -21 -29 -18 -33 4 -3 2 -12 -5 -20
-17 -21 -1 -27 27 -9 15 10 25 12 25 5 0 -6 7 -8 16 -5 12 4 14 1 9 -14 -6
-20 6 -25 42 -21 8 1 10 -8 7 -25 -4 -24 -3 -26 11 -14 13 11 14 10 9 -5 -6
-14 -3 -16 14 -10 26 8 29 -3 5 -21 -13 -9 -14 -13 -4 -14 9 0 11 -8 7 -24 -9
-36 9 -41 52 -15 38 23 61 43 142 124 26 25 51 45 58 45 6 0 24 16 39 35 15
19 33 35 38 35 6 0 29 18 53 40 23 22 45 40 48 40 3 0 19 13 34 29 37 37 149
121 161 121 5 0 9 -5 9 -11 0 -6 7 -9 15 -5 13 5 14 2 4 -15 -15 -29 -4 -35
25 -15 47 31 51 15 6 -25 -34 -30 -39 -39 -23 -36 17 4 20 1 15 -12 -5 -14 -3
-14 21 2 14 9 28 17 30 17 8 0 2 -54 -7 -68 -13 -21 0 -25 32 -8 27 14 31 14
36 0 3 -8 10 -12 16 -9 6 4 7 -1 3 -11 -5 -14 -2 -16 23 -11 l29 5 -28 -23
c-15 -13 -27 -34 -27 -47 0 -17 3 -19 12 -10 7 7 19 12 27 12 8 0 23 7 33 17
23 20 24 2 2 -32 -24 -37 -1 -32 60 12 33 24 44 29 31 14 -11 -13 -19 -33 -17
-46 2 -13 -2 -26 -7 -30 -7 -4 -6 -12 5 -23 15 -15 18 -14 40 13 13 16 26 27
29 24 3 -4 -1 -12 -10 -19 -8 -7 -15 -18 -15 -25 0 -8 -6 -15 -12 -18 -7 -2
-10 -7 -7 -11 4 -4 24 3 45 15 22 12 49 28 62 34 13 7 23 15 23 19 -1 9 42 56
51 56 5 0 4 -9 -2 -21 -20 -36 -2 -33 62 11 l63 43 -72 -77 c-40 -42 -73 -81
-73 -88 0 -7 -15 -27 -32 -46 -33 -33 -33 -34 -8 -30 26 3 27 -1 15 -39 -6
-23 8 -32 20 -13 4 6 11 8 16 4 6 -4 1 -17 -13 -31 -14 -16 -17 -24 -8 -21 8
3 22 2 30 -3 11 -5 32 5 68 32 29 22 52 35 52 30 0 -6 -8 -15 -19 -20 -11 -6
-18 -21 -18 -36 0 -18 3 -23 9 -17 6 6 16 8 22 6 7 -3 21 4 31 16 10 11 23 20
28 20 6 0 22 10 36 23 l24 22 -19 -27 c-10 -15 -22 -28 -26 -28 -5 0 -8 -5 -8
-12 0 -7 -23 -36 -52 -65 -61 -62 -45 -71 23 -13 26 22 54 40 62 40 16 0 50
34 42 42 -3 3 1 8 10 11 28 12 15 -8 -50 -72 -36 -36 -65 -69 -65 -74 0 -6 -7
-19 -17 -29 -31 -35 2 -17 62 32 33 28 63 50 67 50 11 0 10 -18 -2 -25 -5 -3
-10 -10 -10 -16 0 -14 26 -11 40 6 7 8 16 12 21 10 4 -3 11 1 16 9 4 8 33 34
63 58 53 41 51 39 -33 -55 -49 -54 -86 -101 -83 -105 3 -3 19 6 34 19 15 14
36 32 47 40 19 13 19 13 6 -4 -19 -24 -6 -34 17 -14 10 10 23 17 28 18 5 0 29
24 54 54 25 30 53 56 64 59 14 4 12 -2 -10 -25 -23 -24 -26 -32 -14 -39 8 -5
18 -6 22 -4 4 3 8 1 8 -4 0 -6 10 -5 24 1 14 7 23 14 20 16 -7 7 28 41 41 41
7 0 15 10 18 22 4 12 9 19 13 15 8 -8 64 24 64 36 0 6 9 18 21 28 12 10 18 23
13 30 -5 8 -3 9 6 4 9 -5 38 18 91 75 43 46 81 91 84 100 3 10 17 21 30 24 26
7 34 30 13 40 -7 3 -2 4 13 1 17 -3 29 2 39 15 8 11 20 20 27 20 7 0 13 4 13
8 0 13 331 342 343 342 3 0 22 17 44 37 58 57 223 197 236 202 7 2 19 12 28
23 9 10 19 18 23 18 6 0 12 5 72 58 17 15 41 34 54 42 13 8 32 25 43 38 11 12
25 22 31 22 6 0 29 17 52 38 22 20 58 51 79 67 115 88 435 384 435 401 0 7 9
14 21 17 11 3 23 15 26 26 3 11 9 19 13 16 4 -3 15 10 23 27 15 32 15 32 -14
46 -24 12 -29 21 -30 51 -1 20 -3 43 -4 51 -1 8 -3 23 -4 32 0 9 -16 22 -36
29 l-35 13 27 28 c25 26 21 42 -5 16 -6 -6 -15 -9 -18 -5 -4 3 7 14 25 24 30
18 40 33 22 33 -6 0 -13 -4 -16 -10 -10 -15 -33 -12 -31 5 1 8 5 18 9 21 10
10 9 26 -2 20 -18 -11 -17 64 1 101 19 38 16 55 -4 35 -7 -7 -16 -12 -21 -12
-5 0 1 9 14 21 l24 20 -25 -7 c-14 -3 -30 -10 -36 -15 -13 -10 -44 -2 -44 12
0 5 11 16 25 25 31 20 56 60 32 51 -14 -5 -14 -2 1 26 8 18 18 39 22 47 4 8
13 15 21 15 7 0 19 10 25 23 6 13 15 24 20 25 5 1 8 5 7 10 -2 4 2 7 7 7 17 0
59 53 60 75 0 17 -2 17 -10 5 -8 -13 -10 -12 -10 3 0 9 -4 17 -10 17 -5 0 -10
14 -10 30 0 17 -7 42 -16 55 -9 14 -13 32 -10 41 4 12 2 15 -9 10 -24 -9 -43
3 -38 25 3 10 0 19 -6 19 -14 0 -14 45 -1 71 11 19 9 20 -22 23 -16 1 -37 35
-38 59 0 10 -6 20 -13 23 -8 3 -12 16 -9 33 3 24 0 29 -22 35 -14 3 -26 13
-26 21 0 25 -47 41 -73 26 -21 -12 -21 -11 1 8 12 10 22 23 22 27 0 4 16 23
36 41 21 18 34 36 31 40 -4 3 -13 0 -22 -7 -8 -7 -15 -9 -15 -4 0 4 -7 -1 -16
-12 -14 -18 -15 -18 -4 4 6 12 15 20 19 17 5 -3 12 3 15 12 4 9 1 20 -6 24 -9
6 -8 10 5 15 30 11 18 24 -19 19 -31 -4 -34 -2 -29 16 4 11 1 26 -5 34 -10 12
-9 16 4 21 9 3 16 11 16 16 0 6 -7 7 -16 4 -12 -5 -11 2 7 32 12 20 28 44 36
53 22 26 15 28 -24 9 -46 -22 -54 -18 -25 13 27 29 28 41 3 27 -29 -15 -48
-12 -26 3 10 8 15 19 11 25 -3 6 2 15 11 21 10 5 15 13 11 17 -5 4 -2 14 4 22
10 11 9 16 -5 24 -14 7 -15 13 -6 30 14 26 -4 40 -43 35 -16 -2 -28 1 -28 6 0
5 -11 2 -24 -6 -21 -14 -25 -14 -30 -2 -3 8 -17 15 -31 15 -15 0 -25 6 -25 14
0 18 -26 40 -34 28 -3 -5 -15 -12 -26 -15 -16 -4 -13 3 14 28 40 38 49 63 16
45 -11 -6 -20 -8 -20 -5 0 4 -43 -17 -96 -45 -52 -29 -98 -50 -100 -47 -5 4
151 97 163 97 3 0 18 10 35 21 19 14 26 25 20 31 -6 6 -37 -4 -83 -27 -41 -20
-65 -29 -55 -20 11 8 24 15 29 15 5 0 7 6 4 13 -3 7 3 19 14 25 15 10 17 9 12
-5 -4 -11 -2 -14 8 -11 8 3 14 11 14 19 0 8 7 19 15 26 28 22 1 25 -33 4 -19
-11 -37 -17 -41 -13 -4 4 -13 0 -20 -9 -12 -18 -139 -79 -162 -79 -28 0 -13
18 39 45 50 28 108 64 192 122 l40 28 -27 3 c-26 3 -41 22 -18 22 6 0 10 7 10
15 0 18 -5 18 -33 4 -20 -11 -20 -10 3 16 18 20 20 26 8 22 -12 -4 -15 -2 -11
9 7 18 1 18 -45 -2 -20 -8 -38 -15 -39 -15 -2 1 -4 1 -5 0 -30 -9 -38 -6 -33
12 8 23 -3 24 -34 2 -17 -11 -22 -12 -16 -3 15 24 17 72 2 64 -6 -4 0 6 16 23
31 33 34 45 11 36 -14 -5 -15 -3 -5 15 9 17 9 22 0 22 -6 0 -9 7 -5 15 3 8 2
15 -3 15 -5 0 -14 -7 -21 -15 -7 -8 -17 -15 -23 -15 -6 0 0 11 13 25 19 20 20
25 7 25 -25 0 -31 19 -11 41 9 10 14 19 9 19 -4 0 -2 6 4 14 8 10 9 20 2 33
-5 10 -12 26 -15 36 -3 10 -10 15 -16 12 -9 -6 -14 8 -11 28 1 4 -29 5 -66 1
-47 -5 -84 -16 -120 -36 -29 -17 -53 -25 -53 -20 0 16 -41 5 -75 -20 -19 -14
-25 -16 -16 -5 18 23 2 22 -54 -3 -25 -11 -65 -29 -90 -40 -25 -11 -52 -20
-60 -20 -19 0 -88 -24 -223 -77 -129 -51 -148 -49 -136 15 7 34 6 35 -20 30
-20 -4 -24 -2 -17 5 21 21 11 29 -14 13 -24 -16 -25 -16 -25 9 0 28 -3 30 -33
13 -20 -10 -21 -10 -7 7 8 9 15 32 17 50 1 29 -1 32 -28 30 -31 -2 -40 12 -14
21 22 9 18 24 -5 24 -24 0 -26 17 -3 42 15 17 15 19 0 36 -10 10 -17 31 -17
45 0 22 -5 27 -25 27 -16 0 -25 6 -25 15 0 21 -23 19 -65 -6 -19 -12 -42 -18
-50 -15 -9 3 -59 -15 -113 -41 -122 -58 -132 -63 -162 -82 -23 -15 -24 -15
-11 2 16 20 3 22 -24 4 -11 -8 -33 -22 -50 -32 l-30 -17 30 26 c20 17 25 26
15 26 -9 0 -21 -5 -28 -12 -8 -8 -15 -8 -27 2 -12 10 -15 10 -15 -4 0 -30 -18
-16 -24 19 -4 20 -11 33 -17 30 -5 -4 -9 7 -9 24 0 16 -5 42 -11 58 -8 22 -12
24 -19 13 -6 -8 -10 -10 -10 -5 0 6 -5 3 -11 -5 -7 -11 -8 0 -4 38 5 35 3 52
-4 52 -6 0 -11 9 -11 20 0 11 -4 20 -9 20 -16 0 -23 40 -11 55 10 12 9 15 -3
15 -19 0 -30 30 -22 63 6 21 2 25 -25 31 -20 4 -34 13 -37 26 -6 22 -19 25
-45 9z m1382 -1189 c36 -19 89 -144 96 -227 25 -267 -196 -1130 -493 -1923
-140 -377 -218 -507 -335 -560 -47 -22 -122 -26 -180 -10 -88 25 -270 290
-415 605 -122 262 -205 506 -329 960 -96 354 -93 345 -108 345 -22 0 -56 -102
-167 -485 -162 -564 -414 -1363 -443 -1408 -24 -36 -77 -67 -114 -67 -57 0
-142 99 -142 165 0 55 90 365 336 1165 140 454 263 853 274 888 40 128 110
192 209 192 70 0 121 -28 202 -109 61 -62 69 -75 117 -196 27 -71 84 -238 126
-370 153 -487 245 -739 352 -964 102 -213 203 -379 224 -366 4 3 18 46 30 97
13 51 47 154 75 228 112 287 226 670 339 1130 75 303 111 490 126 651 16 164
29 217 69 263 13 15 26 17 72 13 31 -3 66 -10 79 -17z m-3147 -3265 c-3 -9 -8
-14 -10 -11 -3 3 -2 9 2 15 9 16 15 13 8 -4z m1827 -158 c0 -2 -10 -12 -21
-23 -22 -19 -22 -19 -10 4 10 18 31 31 31 19z m900 -112 c0 -9 -11 -21 -25
-27 -14 -6 -25 -17 -25 -25 0 -7 -4 -13 -10 -13 -20 0 -9 29 21 54 36 30 39
31 39 11z m-109 -89 c-18 -19 -40 -32 -47 -29 -8 3 -11 10 -8 15 4 7 9 6 14
-1 5 -9 10 -8 19 3 7 8 10 20 6 25 -3 6 0 8 8 5 8 -3 18 -1 22 5 3 6 9 11 13
11 3 0 -9 -15 -27 -34z m-546 -36 c-21 -22 -44 -40 -50 -40 -9 0 74 79 85 80
2 0 -14 -18 -35 -40z"/>
</g>
</svg>
